<svg width="25" height="24" viewBox="0 0 25 24" fill="none" xmlns="http://www.w3.org/2000/svg">
<path fill-rule="evenodd" clip-rule="evenodd" d="M21.955 5.41595C22.05 5.56016 22.0924 5.73273 22.0749 5.90454C22.0574 6.07634 21.9811 6.23685 21.859 6.35895L12.666 15.551C12.572 15.6449 12.4546 15.7122 12.326 15.746L8.49702 16.746C8.37045 16.779 8.23744 16.7783 8.11121 16.744C7.98498 16.7097 7.8699 16.6431 7.77741 16.5506C7.68492 16.4581 7.61822 16.343 7.58395 16.2168C7.54967 16.0905 7.549 15.9575 7.58202 15.831L8.58202 12.003C8.61192 11.8883 8.66691 11.7817 8.74302 11.691L17.97 2.46995C18.1106 2.3295 18.3013 2.25061 18.5 2.25061C18.6988 2.25061 18.8894 2.3295 19.03 2.46995L21.859 5.29795C21.894 5.33479 21.9261 5.37424 21.955 5.41595ZM20.268 5.82795L18.5 4.06095L9.98202 12.579L9.35702 14.972L11.75 14.347L20.268 5.82795Z" fill="white"/>
<path d="M20.141 17.16C20.4143 14.8239 20.5016 12.4698 20.402 10.12C20.3997 10.0646 20.4088 10.0093 20.429 9.95766C20.4491 9.90602 20.4798 9.85912 20.519 9.81995L21.503 8.83596C21.5299 8.80891 21.564 8.79021 21.6013 8.7821C21.6385 8.77399 21.6774 8.7768 21.7131 8.79022C21.7488 8.80363 21.7798 8.82707 21.8025 8.85771C21.8252 8.88835 21.8386 8.9249 21.841 8.96295C22.0257 11.7542 21.9554 14.5565 21.631 17.335C21.395 19.357 19.771 20.942 17.758 21.167C14.2633 21.5537 10.7367 21.5537 7.24201 21.167C5.23001 20.942 3.60501 19.357 3.36901 17.335C2.95512 13.7903 2.95512 10.2096 3.36901 6.66495C3.60501 4.64295 5.22901 3.05795 7.24201 2.83295C9.89446 2.54 12.5667 2.46876 15.231 2.61995C15.2691 2.62269 15.3057 2.6363 15.3363 2.65917C15.367 2.68203 15.3904 2.7132 15.4039 2.74898C15.4173 2.78475 15.4203 2.82364 15.4123 2.86103C15.4044 2.89842 15.3859 2.93275 15.359 2.95995L14.366 3.95195C14.3272 3.9908 14.2808 4.02124 14.2297 4.04137C14.1786 4.06149 14.1239 4.07089 14.069 4.06895C11.8458 3.9928 9.61993 4.07803 7.40901 4.32395C6.76295 4.39546 6.15986 4.68268 5.69717 5.13921C5.23447 5.59573 4.93919 6.19491 4.85901 6.83995C4.45787 10.2683 4.45787 13.7316 4.85901 17.16C4.93919 17.805 5.23447 18.4042 5.69717 18.8607C6.15986 19.3172 6.76295 19.6044 7.40901 19.676C10.764 20.051 14.236 20.051 17.592 19.676C18.2381 19.6044 18.8412 19.3172 19.3039 18.8607C19.7666 18.4042 20.0608 17.805 20.141 17.16Z" fill="white"/>
</svg>
