<svg width="24" height="24" viewBox="0 0 24 24" fill="none" xmlns="http://www.w3.org/2000/svg">
<path d="M21 4L20.496 4.961C19.812 6.267 18.883 7 17.916 7H7.084C6.116 7 5.187 6.267 4.503 4.961L4 4M2 4H22M5 20H5.869C6.166 20 6.315 20 6.458 19.98C6.78811 19.9319 7.10094 19.8019 7.368 19.602C7.484 19.516 7.589 19.411 7.8 19.2C8.116 18.884 8.274 18.726 8.447 18.597C8.847 18.297 9.317 18.102 9.813 18.031C10.027 18 10.25 18 10.697 18H13.303C13.75 18 13.973 18 14.187 18.03C14.6825 18.102 15.1521 18.297 15.553 18.597C15.726 18.727 15.884 18.884 16.2 19.2C16.41 19.41 16.516 19.516 16.631 19.602C16.8984 19.8017 17.2116 19.9313 17.542 19.979C17.685 20 17.833 20 18.132 20H19M10 18L10.206 16.97C10.333 16.335 10.396 16.017 10.6 15.806C10.6547 15.75 10.7147 15.7007 10.78 15.658C11.027 15.5 11.351 15.5 12 15.5M12 15.5C12.649 15.5 12.973 15.5 13.22 15.658C13.2853 15.7 13.3453 15.7493 13.4 15.806C13.603 16.016 13.667 16.335 13.794 16.971L14 18M12 15.5V9.5M10 7L10.206 8.03C10.333 8.665 10.396 8.983 10.6 9.194C10.6547 9.25 10.7147 9.29933 10.78 9.342C11.027 9.5 11.351 9.5 12 9.5M12 9.5C12.649 9.5 12.973 9.5 13.22 9.342C13.2853 9.29933 13.3453 9.25 13.4 9.194C13.603 8.984 13.667 8.665 13.794 8.029L14 7" stroke="white" stroke-width="1.5" stroke-linecap="round" stroke-linejoin="round"/>
</svg>
