<svg width="24" height="24" viewBox="0 0 24 24" fill="none" xmlns="http://www.w3.org/2000/svg">
<path d="M18.64 17.4119L18.7 17.4519C18.7445 17.4891 18.7901 17.5262 18.8364 17.5633L19.4589 17.5619L19.46 18.0619L19.1384 18.4448C19.0205 18.3457 18.8965 18.248 18.7672 18.1462L18.7487 18.1317C18.7202 18.1093 18.6913 18.0866 18.6624 18.0637L15 18.0719L18.9504 20.624C18.945 20.6282 18.9397 20.6324 18.9344 20.6366M18.64 17.4119L18.9504 17.0199C18.945 17.0157 18.9397 17.0115 18.9344 17.0073M18.64 17.4119L18.9173 16.9959L18.9344 17.0073M18.64 17.4119C18.4 17.2219 18.14 17.0119 17.98 16.8619C17.68 16.5719 17.67 16.0919 17.96 15.8019L18.3254 21.1435M18.9344 17.0073L18.9773 17.0359L18.9996 17.0507L19.0201 17.0678C19.1293 17.1589 19.2459 17.2506 19.3708 17.3488L19.3853 17.3602C19.5135 17.4609 19.6495 17.5682 19.7816 17.6791L20.829 18.5589L19.4611 18.5619L15.0011 18.5719L15 18.5719C14.8661 18.5719 14.75 18.6881 14.75 18.8219C14.75 18.9558 14.8661 19.0719 15 19.0719H19.46H20.785L19.7903 19.9473C19.585 20.128 19.3708 20.2978 19.172 20.4555C19.1174 20.4987 19.0641 20.541 19.0123 20.5824L18.9954 20.5959L18.9774 20.608L18.9344 20.6366M18.9344 17.0073C18.6989 16.8206 18.4649 16.6307 18.3254 16.5003C18.221 16.3972 18.2291 16.24 18.3136 16.1555L18.3137 16.1556L18.3219 16.147C18.3443 16.1235 18.3712 16.1046 18.4009 16.0915C18.4307 16.0785 18.4628 16.0714 18.4953 16.0708C18.5278 16.0702 18.5601 16.076 18.5903 16.088C18.6198 16.0996 18.6468 16.1169 18.6698 16.1388C18.7844 16.2528 18.9843 16.4174 19.2464 16.6214L19.2999 16.6661L19.3085 16.6732L19.3175 16.68C19.5628 16.8665 19.8346 17.0801 20.0948 17.3017C20.3903 17.5565 20.6659 17.7986 20.8636 18.0393L20.8636 18.0394L20.8683 18.0449C20.9646 18.1588 21.0588 18.2862 21.1254 18.4109C21.1908 18.5426 21.24 18.6783 21.24 18.8219C21.24 18.9786 21.1916 19.1148 21.1342 19.2168L21.1341 19.2167L21.1281 19.228C21.0551 19.3659 20.969 19.4892 20.8826 19.5828L20.8764 19.5896L20.8704 19.5966C20.6571 19.8453 20.3826 20.094 20.0948 20.3422C19.9044 20.5043 19.7071 20.6585 19.5168 20.8073C19.4466 20.8622 19.3773 20.9164 19.3096 20.9699L19.3096 20.9698L19.2999 20.9778L19.2464 21.0225C18.9848 21.226 18.7852 21.3905 18.6705 21.5044C18.5708 21.5987 18.4188 21.597 18.3197 21.4946C18.2293 21.401 18.2288 21.2392 18.3254 21.1435M18.9344 20.6366C18.6989 20.8233 18.4649 21.0132 18.3254 21.1435M18.9344 20.6366L18.3254 21.1435M5.08188 19.5576L5.07989 19.5583C5.04885 19.5688 5.01605 19.573 4.98337 19.5709C4.95069 19.5687 4.91875 19.5601 4.88938 19.5455C4.86001 19.531 4.8338 19.5108 4.81223 19.4862C4.79066 19.4615 4.77416 19.4329 4.76367 19.4018C4.75318 19.3708 4.7489 19.338 4.75109 19.3053C4.75327 19.2726 4.76187 19.2407 4.7764 19.2113C4.79093 19.182 4.8111 19.1557 4.83576 19.1342C4.85938 19.1135 4.88669 19.0975 4.91624 19.087C4.98012 19.0669 5.03505 19.0487 5.0853 19.032C5.18569 18.9986 5.2674 18.9715 5.36452 18.9487L5.75 18.858V18.4619V14.0119V13.585L5.32832 13.5181C3.29732 13.196 1.75 11.4421 1.75 9.32195C1.75 6.97809 3.65614 5.07195 6 5.07195C6.59883 5.07195 7.16167 5.19679 7.68209 5.42111L8.09246 5.598L8.31414 5.20998C8.68541 4.56015 9.22188 4.02002 9.86917 3.64434C10.5165 3.26867 11.2516 3.0708 12 3.0708C12.7484 3.0708 13.4835 3.26867 14.1308 3.64434C14.7781 4.02002 15.3146 4.56015 15.6859 5.20998L15.9083 5.59928L16.3194 5.42046C16.8495 5.18992 17.4214 5.07128 17.9994 5.07195H18C20.3439 5.07195 22.25 6.97809 22.25 9.32195C22.25 11.6658 20.3439 13.5719 18 13.5719C17.8661 13.5719 17.75 13.4558 17.75 13.3219C17.75 13.1881 17.8661 13.0719 18 13.0719C20.0661 13.0719 21.75 11.3881 21.75 9.32195C21.75 7.2558 20.0661 5.57195 18 5.57195C17.2283 5.57195 16.5115 5.80285 15.9108 6.20715L15.9108 6.20714L15.9077 6.20929C15.854 6.24598 15.7791 6.26045 15.7006 6.23819C15.6652 6.22412 15.633 6.20295 15.606 6.17596C15.577 6.14699 15.5547 6.11201 15.5408 6.07349C15.2811 5.34233 14.8015 4.70941 14.1679 4.26153C13.5339 3.8134 12.7767 3.57251 12.0004 3.57195H12C10.36 3.57195 8.97749 4.62304 8.45932 6.07326C8.44535 6.11186 8.42305 6.14693 8.39402 6.17596C8.36703 6.20295 8.33483 6.22412 8.29942 6.23819C8.22085 6.26045 8.14596 6.24598 8.09234 6.20929L8.09235 6.20928L8.08919 6.20715C7.4885 5.80285 6.77165 5.57195 6 5.57195C3.93386 5.57195 2.25 7.2558 2.25 9.32195C2.25 11.3881 3.93386 13.0719 6 13.0719C6.13386 13.0719 6.25 13.1881 6.25 13.3219V18.0819V18.698L6.85285 18.5713C8.38527 18.2492 10.1405 18.0719 12 18.0719C12.1339 18.0719 12.25 18.1881 12.25 18.3219C12.25 18.4558 12.1339 18.5719 12 18.5719C9.33776 18.5719 6.91274 18.9473 5.08188 19.5576Z" stroke="#EA7C69"/>
</svg>
