<svg width="24" height="24" viewBox="0 0 24 24" fill="none" xmlns="http://www.w3.org/2000/svg">
<path d="M20.016 9.54638L20.0263 9.60314L20.5182 9.51352M20.016 9.54638L20.4856 9.01459L20.5062 9.32935L20.5062 9.32973L20.5182 9.51352M20.016 9.54638L20.5182 9.51352M20.016 9.54638L20.5182 9.51352M10.0419 6.96611L10.0463 6.97584L10.543 12.844L11.0419 12.8095L10.5431 12.8448L10.543 12.8441C10.5577 13.0555 10.6578 13.2498 10.8171 13.3852C10.9386 13.4885 11.0861 13.5505 11.2421 13.5681L11.2653 13.5707L11.2886 13.5711L11.3505 13.5723L11.3702 13.5727L11.39 13.5715L16.9634 13.2357C16.9635 13.2357 16.9636 13.2357 16.9637 13.2357C17.2822 13.217 17.5925 13.3282 17.8213 13.5393C18.0409 13.742 18.1725 14.025 18.1744 14.3737C17.9351 17.7502 15.4505 20.5819 12.0532 21.3178C8.64846 22.0553 5.16183 20.5065 3.49364 17.5398L3.49369 17.5397L3.48972 17.5329C3.04554 16.7714 2.74653 15.9395 2.60815 15.0997L2.56161 14.7667L2.56173 14.7667L2.55999 14.7559C2.52311 14.5283 2.5032 14.2987 2.50004 14.0793L2.50307 13.8436L2.5031 13.8436L2.50311 13.8385C2.51274 10.307 4.99244 7.24139 8.49931 6.41183L8.73841 6.35922L8.85547 6.33986C9.36751 6.27265 9.85236 6.54562 10.0419 6.96611ZM10.1548 7.35933L10.6533 7.32102L10.1546 7.35633L10.1547 7.358C10.1547 7.35845 10.1548 7.35889 10.1548 7.35933ZM9.04285 6.77883L9.00128 6.77663L8.95992 6.78134L8.87565 6.79092L8.84857 6.794L8.82199 6.80001L8.59351 6.85162L8.5935 6.85157L8.58654 6.85325C5.40606 7.6198 3.11558 10.3616 2.98834 13.6014L2.98826 13.6014L2.98807 13.6105L2.983 13.8514C2.97518 14.0622 2.98309 14.2726 3.00816 14.494L3.00803 14.494L3.0096 14.5055L3.03671 14.7037C3.14448 15.6241 3.44177 16.5127 3.91523 17.3257C5.49306 20.128 8.76414 21.5705 11.9448 20.8815C15.1262 20.1925 17.4765 17.5302 17.6946 14.3759L17.6958 14.3587V14.3414C17.6958 14.1569 17.6184 13.9818 17.4837 13.8576C17.3948 13.7755 17.2866 13.7207 17.1723 13.6962L17.1395 13.6892L17.106 13.6866L17.0625 13.6832L17.0282 13.6806L16.9939 13.6827L11.429 14.0178L11.429 14.0178L11.4236 14.0182C11.0831 14.0424 10.7485 13.9326 10.4938 13.7162C10.2392 13.4997 10.0862 13.1957 10.064 12.8755L10.064 12.8747L9.67578 7.39086L9.67555 7.38784C9.66711 7.27805 9.62498 7.19211 9.60952 7.16057C9.60917 7.15986 9.60884 7.15918 9.60852 7.15853C9.50118 6.9296 9.27811 6.79128 9.04285 6.77883ZM13.4038 2.50068L13.4038 2.50071L13.4089 2.50085C17.456 2.61533 20.8385 5.51709 21.4938 9.40284L21.4998 9.47454L21.498 9.63364C21.4799 9.81779 21.404 9.99386 21.2784 10.1372C21.1169 10.3215 20.8842 10.4387 20.6243 10.4579C20.6238 10.458 20.6233 10.458 20.6227 10.458L13.9851 10.8908C13.9845 10.8909 13.9838 10.8909 13.9832 10.891C13.3954 10.9231 12.9094 10.4873 12.873 9.94026L12.8729 9.93951L12.4304 3.44074L12.4338 3.34489L12.4501 3.22311C12.4899 3.0423 12.5861 2.87567 12.7281 2.74703C12.9126 2.57995 13.1587 2.49126 13.4038 2.50068ZM13.4349 2.94958L12.8741 2.92301L12.9124 3.48315L13.3522 9.91136L13.8511 9.87814L13.3523 9.91226L13.3522 9.91183C13.372 10.2043 13.623 10.4624 13.9492 10.4442L13.9492 10.4443L13.9541 10.444L20.5509 10.0125L21.1107 9.97584L21.0101 9.42391L20.9773 9.2439L20.9774 9.24388L20.9756 9.23502C20.2759 5.75261 17.2617 3.17865 13.659 2.96024L13.659 2.9602L13.6524 2.95988L13.4349 2.94958Z" stroke="white"/>
</svg>
