<svg width="10" height="12" viewBox="0 0 10 12" fill="none" xmlns="http://www.w3.org/2000/svg">
<path d="M4.99993 11.625C4.73721 11.625 4.52008 11.4326 4.48572 11.183L4.48098 11.1136L4.48125 2.12437L1.19919 5.37204C0.996966 5.57217 0.668386 5.57286 0.465288 5.37359C0.280653 5.19244 0.263283 4.90839 0.413586 4.70788L0.463707 4.65042L4.63191 0.525418L4.64284 0.515308C4.65405 0.504833 4.66573 0.494846 4.67785 0.485382L4.63191 0.525418C4.65199 0.505545 4.67332 0.487638 4.69565 0.471699C4.70967 0.462063 4.72423 0.452713 4.73928 0.444086C4.77275 0.4246 4.80778 0.409498 4.8438 0.398359C4.85649 0.394606 4.86946 0.391117 4.88262 0.388122C4.89266 0.385685 4.90287 0.383681 4.91312 0.381982C4.92423 0.380283 4.93534 0.378801 4.94656 0.377671C4.95782 0.376391 4.96933 0.375606 4.98085 0.375196C4.98724 0.375113 4.99357 0.375 4.99993 0.375L5.01716 0.375153C5.02994 0.375575 5.04271 0.37646 5.05544 0.377809L4.99993 0.375C5.02956 0.375 5.05862 0.377448 5.08689 0.382149C5.09978 0.38425 5.11272 0.38691 5.12556 0.39006C5.13576 0.392587 5.14578 0.395365 5.15567 0.398427C5.16742 0.402041 5.17926 0.406172 5.19096 0.410738C5.20305 0.41548 5.21486 0.420608 5.22643 0.426147C5.23528 0.430344 5.24441 0.435041 5.25343 0.440025C5.27034 0.449425 5.2862 0.459375 5.30145 0.470119C5.30384 0.471809 5.30647 0.473704 5.30909 0.475626C5.33225 0.492681 5.35268 0.510357 5.37161 0.52949L9.53626 4.65039C9.7385 4.8505 9.73782 5.17428 9.53474 5.37356C9.35012 5.55473 9.06179 5.57065 8.85894 5.4217L8.80084 5.37207L5.51937 2.125L5.51888 11.1136C5.51888 11.3961 5.28654 11.625 4.99993 11.625Z" fill="#50D1AA"/>
</svg>
