<svg width="24" height="24" viewBox="0 0 24 24" fill="none" xmlns="http://www.w3.org/2000/svg">
<path d="M18.64 17.412L18.7 17.452C18.7445 17.4891 18.7901 17.5262 18.8364 17.5634L19.4589 17.562L19.46 18.062L19.1384 18.4449C19.0205 18.3458 18.8965 18.248 18.7672 18.1463L18.7487 18.1318C18.7202 18.1093 18.6913 18.0866 18.6624 18.0638L15 18.072L18.9504 20.624C18.945 20.6282 18.9397 20.6325 18.9344 20.6367M18.64 17.412L18.9503 17.02C18.945 17.0158 18.9397 17.0116 18.9344 17.0073M18.64 17.412L18.9173 16.996L18.9344 17.0073M18.64 17.412C18.4 17.222 18.14 17.012 17.98 16.862C17.68 16.572 17.67 16.092 17.96 15.802L18.3254 21.1436M18.9344 17.0073L18.9773 17.036L18.9996 17.0508L19.0201 17.0679C19.1293 17.1589 19.2459 17.2506 19.3708 17.3488L19.3853 17.3602C19.5135 17.461 19.6495 17.5682 19.7816 17.6792L20.829 18.5589L19.4611 18.562L15.0011 18.572L15 18.572C14.8661 18.572 14.75 18.6882 14.75 18.822C14.75 18.9559 14.8661 19.072 15 19.072H19.46H20.785L19.7903 19.9474C19.585 20.1281 19.3708 20.2979 19.172 20.4555C19.1175 20.4987 19.0641 20.5411 19.0123 20.5824L18.9954 20.596L18.9774 20.608L18.9344 20.6367M18.9344 17.0073C18.6989 16.8207 18.4649 16.6307 18.3254 16.5004C18.221 16.3973 18.2291 16.24 18.3136 16.1556L18.3137 16.1557L18.3219 16.1471C18.3443 16.1235 18.3712 16.1047 18.4009 16.0916C18.4307 16.0785 18.4628 16.0715 18.4953 16.0709C18.5278 16.0702 18.5601 16.0761 18.5903 16.088C18.6198 16.0997 18.6468 16.117 18.6698 16.1389C18.7844 16.2529 18.9843 16.4175 19.2464 16.6215L19.2999 16.6661L19.3085 16.6733L19.3175 16.6801C19.5627 16.8665 19.8344 17.0801 20.0946 17.3017C20.3902 17.5565 20.6659 17.7986 20.8636 18.0394L20.8636 18.0394L20.8683 18.045C20.9646 18.1588 21.0588 18.2863 21.1254 18.411C21.1908 18.5426 21.24 18.6783 21.24 18.822C21.24 18.9787 21.1916 19.1149 21.1342 19.2169L21.1341 19.2168L21.1281 19.2281C21.0551 19.366 20.969 19.4892 20.8826 19.5829L20.8764 19.5896L20.8704 19.5966C20.6571 19.8454 20.3825 20.0942 20.0946 20.3424C19.9043 20.5044 19.7071 20.6586 19.5168 20.8073C19.4466 20.8623 19.3773 20.9164 19.3096 20.97L19.3096 20.9699L19.2999 20.9779L19.2463 21.0225C18.9848 21.2261 18.7852 21.3905 18.6705 21.5045C18.5708 21.5988 18.4188 21.5971 18.3197 21.4947C18.2293 21.4011 18.2289 21.2392 18.3254 21.1436M18.9344 20.6367C18.6989 20.8233 18.4649 21.0133 18.3254 21.1436M18.9344 20.6367L18.3254 21.1436M5.07989 19.5583L5.08188 19.5577C6.91274 18.9474 9.33776 18.572 12 18.572C12.1339 18.572 12.25 18.4559 12.25 18.322C12.25 18.1882 12.1339 18.072 12 18.072C10.1405 18.072 8.38527 18.2492 6.85285 18.5713L6.25 18.698V18.082V13.322C6.25 13.1882 6.13386 13.072 6 13.072C3.93386 13.072 2.25 11.3882 2.25 9.32201C2.25 7.25587 3.93386 5.57201 6 5.57201C6.77165 5.57201 7.4885 5.80291 8.08919 6.20721L8.09235 6.20934L8.09234 6.20936C8.14596 6.24604 8.22086 6.26051 8.29942 6.23825C8.33483 6.22418 8.36703 6.20301 8.39402 6.17602C8.42305 6.14699 8.44535 6.11192 8.45932 6.07332C8.97749 4.62311 10.36 3.57201 12 3.57201H12.0004C12.7767 3.57257 13.5339 3.81346 14.1679 4.2616C14.8016 4.70948 15.2811 5.34243 15.5408 6.07361M5.07989 19.5583L15.07 6.24201M5.07989 19.5583C5.04884 19.5688 5.01605 19.5731 4.98337 19.5709C4.95069 19.5687 4.91875 19.5601 4.88938 19.5456C4.86001 19.5311 4.8338 19.5109 4.81223 19.4863C4.79066 19.4616 4.77416 19.4329 4.76367 19.4019C4.75318 19.3709 4.7489 19.3381 4.75109 19.3054C4.75327 19.2727 4.76187 19.2408 4.7764 19.2114C4.79093 19.182 4.8111 19.1558 4.83575 19.1342C4.85938 19.1136 4.88669 19.0976 4.91623 19.087C4.98012 19.067 5.03504 19.0487 5.08529 19.0321C5.18568 18.9987 5.26739 18.9716 5.36452 18.9487L5.75 18.858V18.462V14.012V13.5851L5.32832 13.5182C3.29732 13.1961 1.75 11.4422 1.75 9.32201C1.75 6.97815 3.65614 5.07201 6 5.07201C6.59883 5.07201 7.16167 5.19686 7.68209 5.42117L8.09246 5.59806L8.31414 5.21004C8.68541 4.56021 9.22188 4.02008 9.86917 3.6444C10.5165 3.26873 11.2516 3.07086 12 3.07086C12.7484 3.07086 13.4835 3.26873 14.1308 3.6444C14.7781 4.02008 15.3146 4.56021 15.6859 5.21004L15.9083 5.59934L16.3194 5.42052C16.8495 5.18998 17.4214 5.07134 17.9994 5.07201H18C20.3439 5.07201 22.25 6.97815 22.25 9.32201C22.25 11.6659 20.3439 13.572 18 13.572C17.8661 13.572 17.75 13.4559 17.75 13.322C17.75 13.1882 17.8661 13.072 18 13.072C20.0661 13.072 21.75 11.3882 21.75 9.32201C21.75 7.25587 20.0661 5.57201 18 5.57201C17.2283 5.57201 16.5115 5.80291 15.9108 6.20721L15.9108 6.2072L15.9077 6.20936C15.854 6.24604 15.7791 6.26051 15.7006 6.23825M5.07989 19.5583L15.54 6.71201M15.5408 6.07361C15.5409 6.07402 15.5411 6.07442 15.5412 6.07483L15.07 6.24201M15.5408 6.07361C15.5407 6.07334 15.5406 6.07307 15.5405 6.07279L15.07 6.24201M15.5408 6.07361C15.5548 6.1121 15.577 6.14706 15.606 6.17602C15.633 6.20301 15.6652 6.22418 15.7006 6.23825M15.07 6.24201C15.1089 6.35013 15.1712 6.44833 15.2524 6.52958C15.3337 6.61083 15.4319 6.67312 15.54 6.71201M15.7006 6.23825C15.6976 6.2374 15.6946 6.2365 15.6916 6.23555L15.54 6.71201M15.7006 6.23825C15.7034 6.23938 15.7063 6.24047 15.7092 6.24151L15.54 6.71201" fill="#EA7C69" stroke="white"/>
</svg>
