<svg width="20" height="21" viewBox="0 0 20 21" fill="none" xmlns="http://www.w3.org/2000/svg">
<path d="M15.1976 12.2837C16.927 12.2837 18.3329 13.6715 18.3329 15.3785C18.3329 17.0847 16.927 18.4733 15.1976 18.4733C13.4683 18.4733 12.0624 17.0847 12.0624 15.3785C12.0624 13.6715 13.4683 12.2837 15.1976 12.2837ZM15.1976 13.7353C14.279 13.7353 13.533 14.4718 13.533 15.3785C13.533 16.2843 14.279 17.0218 15.1976 17.0218C16.1162 17.0218 16.8623 16.2843 16.8623 15.3785C16.8623 14.4718 16.1162 13.7353 15.1976 13.7353ZM8.4308 14.6525C8.83667 14.6525 9.16608 14.9776 9.16608 15.3783C9.16608 15.7789 8.83667 16.1041 8.4308 16.1041H2.40247C1.9966 16.1041 1.66719 15.7789 1.66719 15.3783C1.66719 14.9776 1.9966 14.6525 2.40247 14.6525H8.4308ZM4.80174 2.64001C6.53112 2.64001 7.93698 4.02871 7.93698 5.73482C7.93698 7.44093 6.53112 8.82962 4.80174 8.82962C3.07334 8.82962 1.6665 7.44093 1.6665 5.73482C1.6665 4.02871 3.07334 2.64001 4.80174 2.64001ZM4.80174 4.09161C3.88411 4.09161 3.13707 4.82902 3.13707 5.73482C3.13707 6.64061 3.88411 7.37802 4.80174 7.37802C5.72035 7.37802 6.46642 6.64061 6.46642 5.73482C6.46642 4.82902 5.72035 4.09161 4.80174 4.09161ZM17.5979 5.00921C18.0038 5.00921 18.3332 5.33437 18.3332 5.73501C18.3332 6.13565 18.0038 6.46081 17.5979 6.46081H11.5686C11.1627 6.46081 10.8333 6.13565 10.8333 5.73501C10.8333 5.33437 11.1627 5.00921 11.5686 5.00921H17.5979Z" fill="#EA7C69"/>
</svg>
