<svg width="40" height="40" viewBox="0 0 40 40" fill="none" xmlns="http://www.w3.org/2000/svg">
<path d="M31.6666 3.33337H8.33325C5.57659 3.33337 3.33325 5.57671 3.33325 8.33337V13.0517C3.33325 14.8067 3.96992 16.4017 4.99992 17.6284V33.3334C4.99992 33.7754 5.17551 34.1993 5.48807 34.5119C5.80063 34.8244 6.22456 35 6.66659 35H19.9999C20.4419 35 20.8659 34.8244 21.1784 34.5119C21.491 34.1993 21.6666 33.7754 21.6666 33.3334V25H28.3333V33.3334C28.3333 33.7754 28.5088 34.1993 28.8214 34.5119C29.134 34.8244 29.5579 35 29.9999 35H33.3333C33.7753 35 34.1992 34.8244 34.5118 34.5119C34.8243 34.1993 34.9999 33.7754 34.9999 33.3334V17.6267C36.0299 16.4017 36.6666 14.8067 36.6666 13.05V8.33337C36.6666 5.57671 34.4233 3.33337 31.6666 3.33337ZM33.3333 8.33337V13.0517C33.3333 14.9517 31.9183 16.5717 30.1816 16.6634L29.9999 16.6667C28.1616 16.6667 26.6666 15.1717 26.6666 13.3334V6.66671H31.6666C32.5866 6.66671 33.3333 7.41504 33.3333 8.33337ZM16.6666 13.3334V6.66671H23.3333V13.3334C23.3333 15.1717 21.8383 16.6667 19.9999 16.6667C18.1616 16.6667 16.6666 15.1717 16.6666 13.3334ZM6.66659 8.33337C6.66659 7.41504 7.41325 6.66671 8.33325 6.66671H13.3333V13.3334C13.3333 15.1717 11.8383 16.6667 9.99992 16.6667L9.81825 16.6617C8.08158 16.5717 6.66659 14.9517 6.66659 13.0517V8.33337ZM16.6666 26.6667H9.99992V21.6667H16.6666V26.6667Z" fill="url(#paint0_linear_505_132)"/>
<defs>
<linearGradient id="paint0_linear_505_132" x1="19.9999" y1="3.33337" x2="19.9999" y2="35" gradientUnits="userSpaceOnUse">
<stop stop-color="#EA9769"/>
<stop offset="1" stop-color="#EA6969"/>
</linearGradient>
</defs>
</svg>
