<svg width="26" height="25" viewBox="0 0 26 25" fill="none" xmlns="http://www.w3.org/2000/svg">
<path d="M17.1667 17.7083V19.7917H2.58337V17.7083C2.58337 17.7083 2.58337 13.5417 9.87504 13.5417C17.1667 13.5417 17.1667 17.7083 17.1667 17.7083ZM13.5209 7.81251C13.5209 7.09144 13.307 6.38655 12.9064 5.787C12.5058 5.18744 11.9364 4.72015 11.2702 4.4442C10.6041 4.16826 9.871 4.09606 9.16377 4.23673C8.45655 4.37741 7.80693 4.72464 7.29705 5.23452C6.78717 5.7444 6.43994 6.39403 6.29926 7.10125C6.15859 7.80847 6.23079 8.54152 6.50673 9.20771C6.78267 9.8739 7.24997 10.4433 7.84952 10.8439C8.44908 11.2445 9.15396 11.4583 9.87504 11.4583C10.842 11.4583 11.7693 11.0742 12.453 10.3905C13.1368 9.70678 13.5209 8.77945 13.5209 7.81251ZM17.1042 13.5417C17.7446 14.0373 18.2686 14.6671 18.6393 15.387C19.01 16.1069 19.2185 16.8992 19.25 17.7083V19.7917H23.4167V17.7083C23.4167 17.7083 23.4167 13.9271 17.1042 13.5417ZM16.125 4.16668C15.408 4.16269 14.7068 4.37705 14.1146 4.78126C14.7474 5.66536 15.0876 6.72531 15.0876 7.81251C15.0876 8.89972 14.7474 9.95966 14.1146 10.8438C14.7068 11.248 15.408 11.4623 16.125 11.4583C17.092 11.4583 18.0193 11.0742 18.703 10.3905C19.3868 9.70678 19.7709 8.77945 19.7709 7.81251C19.7709 6.84558 19.3868 5.91825 18.703 5.23452C18.0193 4.55079 17.092 4.16668 16.125 4.16668Z" fill="#EA7C69"/>
</svg>
