<svg width="25" height="24" viewBox="0 0 25 24" fill="none" xmlns="http://www.w3.org/2000/svg">
<path d="M17.7855 10.679C19.9751 10.679 21.75 8.90403 21.75 6.7145C21.75 4.52497 19.9751 2.75 17.7855 2.75C15.596 2.75 13.821 4.52497 13.821 6.7145C13.821 8.90403 15.596 10.679 17.7855 10.679Z" stroke="white" stroke-width="1.5" stroke-linecap="round" stroke-linejoin="round"/>
<path d="M3.25 10.6785V4.73298C3.25 3.74048 4.1755 2.75098 5.2325 2.75098C6.292 2.75098 7.215 3.73998 7.215 4.73298V10.6785" stroke="white" stroke-width="1.5" stroke-linecap="round" stroke-linejoin="round"/>
<path d="M7.2145 4.73249C7.2145 3.73999 8.1395 2.75049 9.1965 2.75049C10.256 2.75049 11.179 3.73949 11.179 4.73249V10.678M3.25 21.25V15.304C3.25 14.3115 4.175 13.3215 5.232 13.3215C6.2915 13.3215 7.2145 14.311 7.2145 15.304M7.2145 15.304V21.25M7.2145 15.304C7.2145 14.3115 8.1395 13.3215 9.1965 13.3215C10.256 13.3215 11.179 14.311 11.179 15.304V21.25" stroke="white" stroke-width="1.5" stroke-linecap="round" stroke-linejoin="round"/>
<path d="M17.7855 21.25C19.9751 21.25 21.75 19.4751 21.75 17.2855C21.75 15.096 19.9751 13.321 17.7855 13.321C15.596 13.321 13.821 15.096 13.821 17.2855C13.821 19.4751 15.596 21.25 17.7855 21.25Z" stroke="white" stroke-width="1.5" stroke-linecap="round" stroke-linejoin="round"/>
</svg>
