<svg width="48" height="48" viewBox="0 0 48 48" fill="none" xmlns="http://www.w3.org/2000/svg">
<path fill-rule="evenodd" clip-rule="evenodd" d="M12 6C12 5.20435 12.3161 4.44129 12.8787 3.87868C13.4413 3.31607 14.2044 3 15 3H33C33.7956 3 34.5587 3.31607 35.1213 3.87868C35.6839 4.44129 36 5.20435 36 6V12H36.33C36.9988 12 37.6484 12.2235 38.1756 12.635C38.7029 13.0464 39.0775 13.6223 39.24 14.271L39.99 17.271C40.1008 17.7133 40.1093 18.1751 40.0149 18.6213C39.9205 19.0674 39.7256 19.4861 39.445 19.8456C39.1645 20.2051 38.8056 20.496 38.3958 20.696C37.986 20.896 37.536 21 37.08 21H36V22.5H37.5C38.2957 22.5 39.0587 22.8161 39.6213 23.3787C40.1839 23.9413 40.5 24.7044 40.5 25.5V27C40.5 27.7956 40.1839 28.5587 39.6213 29.1213C39.0587 29.6839 38.2957 30 37.5 30H36V36C36 36.7957 35.6839 37.5587 35.1213 38.1213C34.5587 38.6839 33.7956 39 33 39H26.121L25.233 39.888L22.755 44.841C22.506 45.3392 22.1233 45.7583 21.6496 46.0513C21.1759 46.3443 20.63 46.4997 20.073 46.5H10.953C10.3614 46.4995 9.78319 46.3242 9.291 45.996L5.835 43.692C5.42425 43.418 5.0875 43.0468 4.85462 42.6114C4.62173 42.1759 4.49993 41.6898 4.5 41.196V30.108C4.49987 29.9655 4.50989 29.8231 4.53 29.682L7.332 10.077C7.43385 9.36186 7.79032 8.70748 8.33593 8.23407C8.88154 7.76066 9.57964 7.50001 10.302 7.5H12V6ZM12 10.5H10.302L7.5 30.108V41.196L10.953 43.5H13.5V39.501C13.5 38.8519 13.7105 38.2203 14.1 37.701L22.02 27.141L19.5 24.621L13.062 31.062L10.938 28.938L12 27.879V10.5ZM15 24.879L17.379 22.5C17.9416 21.9376 18.7045 21.6216 19.5 21.6216C20.2955 21.6216 21.0584 21.9376 21.621 22.5L24.141 25.02C24.6516 25.5306 24.9609 26.2082 25.0122 26.9284C25.0634 27.6487 24.8532 28.3633 24.42 28.941L19.125 36H33V6H15V24.879ZM36 18H37.08L36.33 15H36V18ZM36 25.5V27H37.5V25.5H36ZM16.875 39L16.5 39.501V43.5H20.073L22.323 39H16.875ZM22.5 10.5V9H25.5V10.5H22.5ZM24 10.5C22.8065 10.5 21.6619 10.9741 20.818 11.818C19.9741 12.6619 19.5 13.8065 19.5 15H18V18H30V15H28.5C28.5 13.8065 28.0259 12.6619 27.182 11.818C26.3381 10.9741 25.1935 10.5 24 10.5ZM24 13.5C23.6022 13.5 23.2206 13.658 22.9393 13.9393C22.658 14.2206 22.5 14.6022 22.5 15H25.5C25.5 14.6022 25.342 14.2206 25.0607 13.9393C24.7794 13.658 24.3978 13.5 24 13.5ZM18.438 29.562L16.938 28.062L19.062 25.938L20.562 27.438L18.438 29.562Z" fill="#EA7C69"/>
</svg>
