<svg width="40" height="36" viewBox="0 0 40 36" fill="none" xmlns="http://www.w3.org/2000/svg">
<path d="M11.4731 30.6713L25.3053 18.9593C25.6087 18.7038 25.7788 18.3588 25.7788 17.9994C25.7788 17.6399 25.6087 17.2949 25.3053 17.0394L11.4761 5.32746C11.1729 5.07033 11.003 4.72425 11.003 4.36375C11.003 4.00325 11.1729 3.65718 11.4761 3.40005C11.6242 3.27343 11.8013 3.17281 11.9968 3.1041C12.1923 3.0354 12.4024 3 12.6145 3C12.8267 3 13.0368 3.0354 13.2323 3.1041C13.4278 3.17281 13.6049 3.27343 13.753 3.40005L27.5821 15.1095C28.4909 15.8808 29 16.9185 29 17.9994C29 19.0802 28.4909 20.118 27.5821 20.8892L13.753 32.5987C13.6048 32.7257 13.4276 32.8266 13.2318 32.8955C13.036 32.9645 12.8256 33 12.613 33C12.4005 33 12.1901 32.9645 11.9943 32.8955C11.7985 32.8266 11.6213 32.7257 11.4731 32.5987C11.1699 32.3415 11 31.9955 11 31.635C11 31.2745 11.1699 30.9284 11.4731 30.6713Z" fill="#F7836F" fill-opacity="0.6"/>
</svg>
