<svg width="16" height="17" viewBox="0 0 16 17" fill="none" xmlns="http://www.w3.org/2000/svg">
<path d="M13.7325 5.76564L13.8153 5.76677C14.1229 5.7922 14.3587 6.04759 14.375 6.355L14.3671 6.52641L14.105 9.73578L13.8301 12.8678C13.7719 13.493 13.7198 14.0204 13.6749 14.4355C13.5187 15.8823 12.5796 16.7769 11.1638 16.8034C8.95781 16.8441 6.83731 16.8437 4.7781 16.7992C3.40331 16.7703 2.47805 15.866 2.32462 14.4414L2.21858 13.3918L2.03328 11.3558L1.84347 9.12168L1.62643 6.43986C1.59946 6.09578 1.84959 5.79442 2.18512 5.76676C2.49269 5.7414 2.76525 5.95483 2.82932 6.2556L2.85426 6.5014L3.05805 9.01556L3.28057 11.6215C3.38038 12.7496 3.46695 13.6626 3.53622 14.304C3.62365 15.1158 4.05115 15.5336 4.80343 15.5494C6.84654 15.5936 8.95123 15.594 11.1417 15.5535C11.9398 15.5386 12.374 15.1249 12.4633 14.2978L12.5689 13.2538C12.5998 12.9321 12.6328 12.5769 12.6678 12.191L12.8905 9.62812L13.1588 6.33954C13.1836 6.02414 13.4327 5.78238 13.7325 5.76564ZM1.10949 4.32428C0.772879 4.32428 0.5 4.04445 0.5 3.69926C0.5 3.38283 0.729294 3.12133 1.02679 3.07994L1.10949 3.07423H3.76476C4.0803 3.07423 4.35654 2.86602 4.45535 2.56604L4.47953 2.4734L4.68587 1.42106C4.86759 0.724097 5.45767 0.22787 6.14916 0.171902L6.27993 0.166626H9.7199C10.4229 0.166626 11.0436 0.621855 11.2826 1.32528L11.3228 1.46003L11.5203 2.47315C11.5822 2.79056 11.8354 3.02762 12.1417 3.0681L12.2351 3.07423H14.8905C15.2271 3.07423 15.5 3.35406 15.5 3.69926C15.5 4.01568 15.2707 4.27719 14.9732 4.31857L14.8905 4.32428H1.10949ZM9.7199 1.41667H6.27993C6.10892 1.41667 5.95691 1.51931 5.89377 1.64831L5.87235 1.70499L5.67483 2.71861C5.65067 2.84233 5.61566 2.96146 5.57093 3.07506L10.429 3.07522C10.4011 3.00434 10.377 2.93132 10.3569 2.85636L10.325 2.71836L10.1364 1.74396C10.0923 1.57489 9.95612 1.45111 9.79185 1.42281L9.7199 1.41667Z" fill="#EA7C69"/>
</svg>
