<svg width="24" height="24" viewBox="0 0 24 24" fill="none" xmlns="http://www.w3.org/2000/svg">
<path d="M13 4.5H12.5V5V6.035V6.49199L12.9551 6.53298C18.0657 6.99331 21.42 12.2958 19.4647 17.1854L19.4647 17.1855C19.4276 17.2784 19.3635 17.358 19.2807 17.414C19.1979 17.4701 19.1002 17.5 19.0002 17.5H19H5.00032C4.90041 17.4999 4.8028 17.4699 4.7201 17.4139C4.6374 17.3578 4.57338 17.2783 4.53632 17.1855L4.53623 17.1853C2.58007 12.2958 5.93429 6.99331 11.0449 6.53298L11.5 6.49199V6.035V5V4.5H11H10C9.86739 4.5 9.74022 4.44732 9.64645 4.35355C9.55268 4.25978 9.5 4.13261 9.5 4C9.5 3.86739 9.55268 3.74021 9.64645 3.64645C9.74021 3.55268 9.86739 3.5 10 3.5H14C14.1326 3.5 14.2598 3.55268 14.3536 3.64645C14.4473 3.74021 14.5 3.86739 14.5 4C14.5 4.13261 14.4473 4.25978 14.3536 4.35355C14.2598 4.44732 14.1326 4.5 14 4.5H13ZM5.23221 16.1373L5.33578 16.5H5.713H18.287H18.6642L18.7678 16.1373C19.9847 11.8753 16.7927 7.5 12.23 7.5H11.77C7.20726 7.5 4.01528 11.8753 5.23221 16.1373ZM3.5 20C3.5 19.8674 3.55268 19.7402 3.64645 19.6464C3.74021 19.5527 3.86739 19.5 4 19.5H20C20.1326 19.5 20.2598 19.5527 20.3536 19.6464C20.4473 19.7402 20.5 19.8674 20.5 20C20.5 20.1326 20.4473 20.2598 20.3536 20.3536C20.2598 20.4473 20.1326 20.5 20 20.5H4C3.86739 20.5 3.74021 20.4473 3.64645 20.3536C3.55268 20.2598 3.5 20.1326 3.5 20Z" stroke="#EA7C69"/>
</svg>
