<svg width="24" height="24" viewBox="0 0 24 24" fill="none" xmlns="http://www.w3.org/2000/svg">
<circle cx="12" cy="12" r="9" stroke="#FF2D08" stroke-width="1.8"/>
<path d="M11.0362 10.1891V10.814C10.6526 10.6117 10.459 10.3185 10.459 9.94112C10.459 9.52278 10.6856 9.2145 11.0362 9.04364V9.6709M11.0362 10.1891C11.0428 10.1978 11.0498 10.2062 11.0572 10.2146C11.1299 10.2963 11.2662 10.3913 11.51 10.4717L11.5116 10.4722C11.5204 10.4751 11.5286 10.4779 11.5362 10.4804V9.40769C11.3363 9.43988 11.1925 9.51244 11.1034 9.59436C11.0782 9.61757 11.0556 9.64291 11.0362 9.6709M11.0362 10.1891V9.6709M11.0362 10.1891C10.9856 10.1228 10.959 10.046 10.959 9.94112C10.959 9.82876 10.9875 9.74143 11.0362 9.6709M12.5547 17.8772H13.0587L13.0547 17.3733L13.0516 16.9842C13.8303 16.8458 14.5071 16.5471 15.0179 16.0822C15.6356 15.5202 15.973 14.7481 15.973 13.8387C15.973 12.9223 15.6579 12.2236 15.117 11.7217C14.5936 11.2361 13.9001 10.9727 13.2012 10.8232L13.2002 10.823L13.0417 10.7894V9.77146C13.1032 9.87313 13.1348 9.98439 13.1388 10.0904L13.1569 10.5717H13.6385H15.3098H15.8195L15.8097 10.0621C15.7802 8.53007 14.6678 7.4054 13.0678 7.07791V6.65723V6.15723H12.5678H11.5101H11.0101V6.65723V7.0626C10.3199 7.18673 9.6824 7.45076 9.1839 7.87393C8.56481 8.39946 8.18976 9.14744 8.18976 10.0782C8.18976 10.9533 8.51139 11.6427 9.02826 12.1455C9.5336 12.6371 10.1994 12.9263 10.8669 13.0734C10.867 13.0735 10.8671 13.0735 10.8672 13.0735L11.0362 13.1109V14.4433C10.9969 14.416 10.9627 14.3873 10.9331 14.3582C10.8086 14.2355 10.7397 14.079 10.7298 13.8965L10.7041 13.4236H10.2305H8.52002H8.01458L8.02005 13.929C8.02776 14.6422 8.27186 15.3912 8.84744 15.9847C9.3453 16.4979 10.0592 16.8622 11 17.0074L10.9971 17.3732L10.9931 17.8772H11.4971H12.5547ZM13.2233 14.015C13.2233 14.1974 13.1577 14.3299 13.0523 14.4274C13.0488 14.4307 13.0453 14.4339 13.0417 14.4371V13.6248C13.0679 13.6452 13.0898 13.6652 13.108 13.6845C13.1806 13.7617 13.2233 13.8571 13.2233 14.015Z" stroke="#FF2D08"/>
</svg>
