<svg width="24" height="24" viewBox="0 0 24 24" fill="none" xmlns="http://www.w3.org/2000/svg">
<path d="M13.8157 20.8558L13.8157 20.8557L13.8081 20.8617C13.1847 21.3508 12.392 21.5727 11.6044 21.4789C10.8162 21.3851 10.0977 20.9825 9.60749 20.3597C9.53887 20.2725 9.55447 20.1452 9.63806 20.0777C9.718 20.0133 9.83403 20.0251 9.8998 20.1087C10.3277 20.6523 10.9569 21.0039 11.6473 21.0861C12.3387 21.1685 13.033 20.9739 13.5874 20.5406C13.7528 20.4153 13.9016 20.27 14.0304 20.108C14.0965 20.0248 14.2125 20.0134 14.2922 20.0783C14.3756 20.1462 14.3905 20.2736 14.3215 20.3604C14.1708 20.5501 13.9972 20.719 13.8157 20.8558ZM5.65454 9.5735L5.4863 9.53549L5.64968 9.53623L5.6521 9.00605L5.66426 8.41774C5.67279 8.17201 5.68588 7.94569 5.70486 7.72552C5.9776 4.79013 8.8088 2.5 11.9648 2.5H12.0361C15.1895 2.5 18.0228 4.78784 18.3054 7.73063C18.3216 7.91945 18.3289 8.0885 18.3311 8.33456L18.332 9.12039H18.332L18.332 9.12497C18.3328 9.19936 18.3341 9.26607 18.336 9.32918L18.336 9.32918L18.3363 9.33705L18.3456 9.53329L18.3478 9.58005L18.3586 9.6256L18.4032 9.81271L18.4049 9.81999L18.4069 9.82721C18.5656 10.415 18.8444 10.9642 19.2259 11.4407L19.2305 11.4465L19.2353 11.4521L19.3791 11.6212L19.4227 11.6772C19.7691 12.2005 19.9692 12.8089 20 13.4694L19.999 13.8533C19.973 14.6328 19.688 15.3891 19.1597 16.0261C18.4414 16.7832 17.471 17.2531 16.4415 17.3478L16.4415 17.3478L16.4334 17.3486C13.4838 17.6689 10.508 17.6689 7.56695 17.3495L7.56695 17.3495L7.56084 17.3489C6.52479 17.2492 5.5565 16.7821 4.80202 15.9915C4.26635 15.3319 3.983 14.5052 4.00079 13.6731L4.00087 13.6731L4.0009 13.6642L4.0017 13.4377C4.03445 12.8086 4.23277 12.1994 4.57658 11.671L4.61958 11.6157C5.14134 11.0384 5.49868 10.3335 5.65454 9.5735ZM6.0818 7.76067L6.08179 7.76067L6.08152 7.76379C6.06926 7.90599 6.05954 8.05191 6.05199 8.20447L6.05193 8.20447L6.05167 8.21199L6.03561 8.67839L6.03543 8.67838L6.03533 8.69204L6.02897 9.58779L6.01958 9.68039C5.84937 10.489 5.4707 11.2392 4.92119 11.8575L4.91997 11.8566L4.87071 11.9138L4.90951 11.9482L4.87061 11.9247L4.7825 12.0705L4.77773 12.0784L4.77326 12.0865C4.57853 12.4373 4.45162 12.8203 4.40112 13.2028L4.39982 13.2127L4.39891 13.2226L4.38144 13.4131L4.37937 13.4357L4.37935 13.4584L4.3792 13.6722C4.36456 14.4219 4.6169 15.1578 5.06612 15.709L5.07811 15.7237L5.09119 15.7374C5.74946 16.4304 6.63838 16.8624 7.60068 16.9557C10.5219 17.2727 13.4692 17.2727 16.4014 16.9547C17.353 16.8661 18.2428 16.4355 18.8717 15.7701L18.8824 15.7588L18.8924 15.7469C19.3808 15.1611 19.6385 14.4223 19.6216 13.6491L19.6224 13.4926L19.6224 13.4802L19.6219 13.4678C19.5967 12.9046 19.4173 12.3589 19.1029 11.8891L18.9293 11.9993L19.0831 11.8682L18.9494 11.7113C18.5218 11.1823 18.2109 10.5694 18.0368 9.9128L17.9788 9.66631L17.9715 9.61334C17.9632 9.49448 17.9582 9.38755 17.9555 9.25912L17.9528 8.359L17.9528 8.35645C17.9509 8.1183 17.9443 7.94968 17.9289 7.77035L17.9289 7.77034L17.9285 7.76569C17.6629 4.98722 14.9385 2.89535 12.0361 2.89535H11.9648C9.06232 2.89535 6.33866 4.98705 6.0818 7.76067Z" fill="#EA7C69" stroke="#EA7C69"/>
</svg>
