<svg width="24" height="25" viewBox="0 0 24 25" fill="none" xmlns="http://www.w3.org/2000/svg">
<g clip-path="url(#clip0_556_1157)">
<path fill-rule="evenodd" clip-rule="evenodd" d="M12.5942 23.8714L12.5822 23.8734L12.5112 23.9084L12.4912 23.9124L12.4772 23.9084L12.4062 23.8724C12.3955 23.8697 12.3875 23.8717 12.3822 23.8784L12.3782 23.8884L12.3612 24.3164L12.3662 24.3364L12.3762 24.3494L12.4802 24.4234L12.4952 24.4274L12.5072 24.4234L12.6112 24.3494L12.6232 24.3334L12.6272 24.3164L12.6102 23.8894C12.6075 23.8787 12.6022 23.8727 12.5942 23.8714ZM12.8582 23.7584L12.8442 23.7604L12.6602 23.8534L12.6502 23.8634L12.6472 23.8744L12.6652 24.3044L12.6702 24.3164L12.6782 24.3244L12.8792 24.4164C12.8918 24.4197 12.9015 24.4171 12.9082 24.4084L12.9122 24.3944L12.8782 23.7804C12.8748 23.7677 12.8682 23.7604 12.8582 23.7584ZM12.1432 23.7604C12.1388 23.7577 12.1335 23.7569 12.1285 23.758C12.1234 23.7591 12.119 23.7621 12.1162 23.7664L12.1102 23.7804L12.0762 24.3944C12.0768 24.4064 12.0825 24.4144 12.0932 24.4184L12.1082 24.4164L12.3092 24.3234L12.3192 24.3154L12.3222 24.3044L12.3402 23.8744L12.3372 23.8624L12.3272 23.8524L12.1432 23.7604Z" fill="#9288E0"/>
<path fill-rule="evenodd" clip-rule="evenodd" d="M3 6.1134C3 5.45036 3.26339 4.81448 3.73223 4.34564C4.20107 3.8768 4.83696 3.6134 5.5 3.6134H18C18.7956 3.6134 19.5587 3.92947 20.1213 4.49208C20.6839 5.05469 21 5.81775 21 6.6134V20.6134C21 20.7913 20.9526 20.9661 20.8626 21.1195C20.7726 21.273 20.6433 21.3997 20.488 21.4865C20.3327 21.5734 20.157 21.6172 19.9791 21.6135C19.8012 21.6098 19.6275 21.5586 19.476 21.4654L16.75 19.7874L14.024 21.4654C13.8664 21.5624 13.685 21.6137 13.5 21.6137C13.315 21.6137 13.1336 21.5624 12.976 21.4654L10.25 19.7874L7.524 21.4654C7.37245 21.5586 7.19878 21.6098 7.02088 21.6135C6.84299 21.6172 6.66733 21.5734 6.51202 21.4865C6.35672 21.3997 6.22739 21.273 6.13738 21.1195C6.04737 20.9661 5.99995 20.7913 6 20.6134V14.6134H4C3.73478 14.6134 3.48043 14.508 3.29289 14.3205C3.10536 14.133 3 13.8786 3 13.6134V6.1134ZM8 18.8234L9.726 17.7614C9.88359 17.6645 10.065 17.6131 10.25 17.6131C10.435 17.6131 10.6164 17.6645 10.774 17.7614L13.5 19.4394L16.226 17.7614C16.3836 17.6645 16.565 17.6131 16.75 17.6131C16.935 17.6131 17.1164 17.6645 17.274 17.7614L19 18.8234V6.6134C19 6.34819 18.8946 6.09383 18.7071 5.9063C18.5196 5.71876 18.2652 5.6134 18 5.6134H7.95C7.98333 5.7754 8 5.94207 8 6.1134V18.8234ZM5.5 5.6134C5.36739 5.6134 5.24021 5.66608 5.14645 5.75985C5.05268 5.85362 5 5.9808 5 6.1134V12.6134H6V6.1134C6 5.9808 5.94732 5.85362 5.85355 5.75985C5.75979 5.66608 5.63261 5.6134 5.5 5.6134ZM10 9.6134C10 9.34819 10.1054 9.09383 10.2929 8.9063C10.4804 8.71876 10.7348 8.6134 11 8.6134H16C16.2652 8.6134 16.5196 8.71876 16.7071 8.9063C16.8946 9.09383 17 9.34819 17 9.6134C17 9.87862 16.8946 10.133 16.7071 10.3205C16.5196 10.508 16.2652 10.6134 16 10.6134H11C10.7348 10.6134 10.4804 10.508 10.2929 10.3205C10.1054 10.133 10 9.87862 10 9.6134ZM10 13.6134C10 13.3482 10.1054 13.0938 10.2929 12.9063C10.4804 12.7188 10.7348 12.6134 11 12.6134H15C15.2652 12.6134 15.5196 12.7188 15.7071 12.9063C15.8946 13.0938 16 13.3482 16 13.6134C16 13.8786 15.8946 14.133 15.7071 14.3205C15.5196 14.508 15.2652 14.6134 15 14.6134H11C10.7348 14.6134 10.4804 14.508 10.2929 14.3205C10.1054 14.133 10 13.8786 10 13.6134Z" fill="#9288E0"/>
</g>
<defs>
<clipPath id="clip0_556_1157">
<rect width="24" height="24" fill="white" transform="translate(0 0.613403)"/>
</clipPath>
</defs>
</svg>
