<svg width="14" height="14" viewBox="0 0 14 14" fill="none" xmlns="http://www.w3.org/2000/svg">
<path fill-rule="evenodd" clip-rule="evenodd" d="M9.86362 5.40362L6.81828 9.40362C6.69295 9.56828 6.49895 9.66562 6.29228 9.66695H6.28762C6.08295 9.66695 5.88962 9.57228 5.76295 9.41095L4.14162 7.33962C3.91495 7.05028 3.96562 6.63095 4.25562 6.40428C4.54495 6.17695 4.96495 6.22762 5.19162 6.51828L6.28028 7.90895L8.80295 4.59628C9.02562 4.30362 9.44362 4.24628 9.73762 4.46962C10.0303 4.69295 10.087 5.11095 9.86362 5.40362ZM7.00028 0.333618C3.31828 0.333618 0.333618 3.31828 0.333618 7.00028C0.333618 10.6816 3.31828 13.667 7.00028 13.667C10.6823 13.667 13.667 10.6816 13.667 7.00028C13.667 3.31828 10.6823 0.333618 7.00028 0.333618Z" fill="white"/>
</svg>
