<svg width="24" height="24" viewBox="0 0 24 24" fill="none" xmlns="http://www.w3.org/2000/svg">
<path d="M20.0269 8.04973L20.0269 8.04978L20.033 8.05457C20.5882 8.48463 20.9308 9.12311 20.9913 9.82187L21.0002 10.0017V18.0983C21.0002 19.913 19.5693 21.3958 17.7665 21.4983H15.7957C15.1062 21.4822 14.5501 20.9452 14.4989 20.2729C14.4989 20.2725 14.4989 20.2721 14.4988 20.2718L14.4902 20.1506V17.3093C14.4902 16.7398 14.0683 16.2835 13.5317 16.195L13.5186 16.1928L13.5055 16.1914L13.4155 16.1814L13.3879 16.1783H13.3602H10.6892H10.6814L10.6736 16.1785C10.1236 16.1958 9.64873 16.5965 9.57463 17.1522L9.5745 17.1522L9.57324 17.1637L9.56324 17.2547L9.56024 17.2819V17.3093V20.1593C9.56024 20.159 9.56024 20.1616 9.55978 20.1678C9.55936 20.1734 9.55868 20.1804 9.55765 20.1888L9.54783 20.2094L9.53648 20.2806L9.52548 20.3496L9.52539 20.3496L9.52406 20.3591C9.43829 20.9724 8.93348 21.4458 8.29527 21.4905L8.18295 21.4983H6.41024C4.59133 21.4983 3.10254 20.075 3.00024 18.2845V9.99206C3.00839 9.28943 3.31307 8.637 3.82344 8.18001L10.0424 3.17887C11.136 2.31088 12.6679 2.2757 13.7953 3.0728L13.9446 3.18408L20.0269 8.04973ZM10.4645 3.35123L10.455 3.35748L10.4458 3.36416L10.2948 3.47416L10.285 3.48135L10.2755 3.48902L4.20269 8.38419C3.74171 8.7301 3.469 9.24409 3.40392 9.77777L3.40233 9.79085L3.40142 9.804L3.39042 9.964L3.38924 9.98113V9.99829V18.0983C3.38924 19.6956 4.63804 21.0016 6.22002 21.0974L6.23512 21.0983H6.25024H8.20024C8.63618 21.0983 9.06696 20.7971 9.13454 20.3077L9.13465 20.3077L9.13588 20.2972L9.15463 20.1365L9.1609 20.1045L9.17024 20.0569V20.0083V17.3093C9.17024 16.5089 9.77764 15.8578 10.5608 15.7883H13.3602C14.1592 15.7883 14.8107 16.3962 14.8802 17.1799V20.1683C14.8802 20.6147 15.1969 21.0037 15.6345 21.0891L15.6819 21.0983H15.7302H17.5892C19.1904 21.0983 20.5009 19.8671 20.5982 18.2909C20.5982 18.2902 20.5983 18.2895 20.5983 18.2887L20.6091 18.1326L20.6102 18.1155V18.0983V9.99829H20.6104L20.6101 9.98548C20.5957 9.42298 20.3602 8.89799 19.9574 8.50941L19.9464 8.49889L19.9349 8.48905L19.8049 8.37805L19.7988 8.37285L19.7926 8.36786L13.6932 3.48836C13.6931 3.4883 13.6931 3.48825 13.693 3.48819C12.758 2.73784 11.4397 2.70638 10.4645 3.35123Z" stroke="#EA7C69"/>
</svg>
