<svg width="21" height="20" viewBox="0 0 21 20" fill="none" xmlns="http://www.w3.org/2000/svg">
<path fill-rule="evenodd" clip-rule="evenodd" d="M10.4898 13.3333C10.2998 13.3333 10.1106 13.2692 9.95642 13.14L4.95642 8.97334C4.60309 8.67917 4.55475 8.15334 4.84975 7.80001C5.14392 7.44667 5.66892 7.39917 6.02309 7.69334L10.4989 11.4233L14.9673 7.82751C15.3256 7.53917 15.8506 7.59584 16.1389 7.95417C16.4273 8.31251 16.3706 8.83667 16.0123 9.12584L11.0123 13.1492C10.8598 13.2717 10.6748 13.3333 10.4898 13.3333Z" fill="#EA7C69"/>
<mask id="mask0_492_3974" style="mask-type:luminance" maskUnits="userSpaceOnUse" x="4" y="7" width="13" height="7">
<path fill-rule="evenodd" clip-rule="evenodd" d="M10.4898 13.3333C10.2998 13.3333 10.1106 13.2692 9.95642 13.14L4.95642 8.97334C4.60309 8.67917 4.55475 8.15334 4.84975 7.80001C5.14392 7.44667 5.66892 7.39917 6.02309 7.69334L10.4989 11.4233L14.9673 7.82751C15.3256 7.53917 15.8506 7.59584 16.1389 7.95417C16.4273 8.31251 16.3706 8.83667 16.0123 9.12584L11.0123 13.1492C10.8598 13.2717 10.6748 13.3333 10.4898 13.3333Z" fill="white"/>
</mask>
<g mask="url(#mask0_492_3974)">
<rect x="0.489746" width="20" height="20" fill="#EA7C69"/>
</g>
</svg>
