<svg width="25" height="25" viewBox="0 0 25 25" fill="none" xmlns="http://www.w3.org/2000/svg">
<g clip-path="url(#clip0_556_1521)">
<path d="M1.5 15.7034V9.70337C1.5 8.11207 2.13214 6.58595 3.25736 5.46073C4.38258 4.33551 5.9087 3.70337 7.5 3.70337H17.5C19.0913 3.70337 20.6174 4.33551 21.7426 5.46073C22.8679 6.58595 23.5 8.11207 23.5 9.70337V15.7034C23.5 17.2947 22.8679 18.8208 21.7426 19.946C20.6174 21.0712 19.0913 21.7034 17.5 21.7034H7.5C5.9087 21.7034 4.38258 21.0712 3.25736 19.946C2.13214 18.8208 1.5 17.2947 1.5 15.7034Z" stroke="#666666" stroke-opacity="0.9" stroke-width="1.5"/>
<path d="M7.5 9.70337C8.29565 9.70337 9.05871 10.0194 9.62132 10.582C10.1839 11.1447 10.5 11.9077 10.5 12.7034C10.5 13.499 10.1839 14.2621 9.62132 14.8247C9.05871 15.3873 8.29565 15.7034 7.5 15.7034C6.70435 15.7034 5.94129 15.3873 5.37868 14.8247C4.81607 14.2621 4.5 13.499 4.5 12.7034C4.5 11.9077 4.81607 11.1447 5.37868 10.582C5.94129 10.0194 6.70435 9.70337 7.5 9.70337Z" stroke="#666666" stroke-opacity="0.9" stroke-width="1.5"/>
<path d="M12.5 15.7034V9.70337H15.5M17.5 15.7034V9.70337H20.5M12.5 12.7034H15.072M17.5 12.7034H20.072" stroke="#666666" stroke-opacity="0.9" stroke-width="1.5" stroke-linecap="round" stroke-linejoin="round"/>
</g>
<defs>
<clipPath id="clip0_556_1521">
<rect width="24" height="24" fill="white" transform="translate(0.5 0.703369)"/>
</clipPath>
</defs>
</svg>
