<svg width="20" height="20" viewBox="0 0 20 20" fill="none" xmlns="http://www.w3.org/2000/svg">
<path d="M7.59149 12.4563L7.91127 12.4577C12.5557 12.4981 15.1835 13.4362 15.1835 15.9983C15.1835 18.5062 12.665 19.4737 8.22363 19.5547L7.59149 19.5603C2.74715 19.5603 0.000488281 18.6394 0.000488281 16.0183C0.000488281 13.3938 2.75808 12.4563 7.59149 12.4563ZM7.59149 13.9563C3.57414 13.9563 1.50049 14.6613 1.50049 16.0183C1.50049 17.3668 3.56916 18.0603 7.59149 18.0603C11.6091 18.0603 13.6835 17.3553 13.6835 15.9983C13.6835 14.6506 11.6129 13.9563 7.59149 13.9563ZM15.5872 11.7481C16.1677 11.7876 16.7449 11.8709 17.2996 11.9938C18.4877 12.2302 19.371 12.6713 19.7757 13.5205C20.0745 14.1492 20.0745 14.8807 19.7757 15.5093C19.3733 16.3563 18.4992 16.7943 17.3044 17.04C16.8987 17.1235 16.5021 16.8622 16.4187 16.4565C16.3352 16.0508 16.5965 15.6542 17.0022 15.5708C17.771 15.4127 18.2827 15.1563 18.4209 14.8655C18.5261 14.6442 18.5261 14.3857 18.4213 14.1651C18.2822 13.8733 17.7678 13.6163 16.9912 13.4617C16.4938 13.3516 15.991 13.2791 15.4854 13.2447C15.0721 13.2166 14.7599 12.8588 14.788 12.4455C14.8161 12.0323 15.1739 11.72 15.5872 11.7481ZM7.59149 0.499817C10.4395 0.499817 12.7265 2.78642 12.7265 5.63382C12.7265 8.48203 10.4397 10.7688 7.59149 10.7688C4.74341 10.7688 2.45749 8.48217 2.45749 5.63382C2.45749 2.78628 4.74359 0.499817 7.59149 0.499817ZM14.0202 1.56942C16.2551 1.56942 18.0672 3.38189 18.0672 5.61642C18.0672 7.85163 16.2554 9.66342 14.0202 9.66342C13.606 9.66342 13.2702 9.32763 13.2702 8.91342C13.2702 8.4992 13.606 8.16342 14.0202 8.16342C15.427 8.16342 16.5672 7.0232 16.5672 5.61642C16.5672 4.21025 15.4266 3.06942 14.0202 3.06942C13.606 3.06942 13.2702 2.73363 13.2702 2.31942C13.2702 1.9052 13.606 1.56942 14.0202 1.56942ZM7.59149 1.99982C5.57207 1.99982 3.95749 3.61466 3.95749 5.63382C3.95749 7.65385 5.57195 9.26882 7.59149 9.26882C9.61127 9.26882 11.2265 7.6536 11.2265 5.63382C11.2265 3.6149 9.61115 1.99982 7.59149 1.99982Z" fill="#65B0F6"/>
</svg>
