<svg width="24" height="25" viewBox="0 0 24 25" fill="none" xmlns="http://www.w3.org/2000/svg">
<path d="M1 15.7034V9.70337C1 8.11207 1.63214 6.58595 2.75736 5.46073C3.88258 4.33551 5.4087 3.70337 7 3.70337H17C18.5913 3.70337 20.1174 4.33551 21.2426 5.46073C22.3679 6.58595 23 8.11207 23 9.70337V15.7034C23 17.2947 22.3679 18.8208 21.2426 19.946C20.1174 21.0712 18.5913 21.7034 17 21.7034H7C5.4087 21.7034 3.88258 21.0712 2.75736 19.946C1.63214 18.8208 1 17.2947 1 15.7034Z" stroke="#F24822" stroke-width="1.5"/>
<path d="M9 9.70337C9.79565 9.70337 10.5587 10.0194 11.1213 10.582C11.6839 11.1447 12 11.9077 12 12.7034C12 13.499 11.6839 14.2621 11.1213 14.8247C10.5587 15.3873 9.79565 15.7034 9 15.7034C8.20435 15.7034 7.44129 15.3873 6.87868 14.8247C6.31607 14.2621 6 13.499 6 12.7034C6 11.9077 6.31607 11.1447 6.87868 10.582C7.44129 10.0194 8.20435 9.70337 9 9.70337Z" stroke="#F24822" stroke-width="1.5"/>
<path d="M14 15.7034V9.70337L18 15.7034V9.70337" stroke="#F24822" stroke-width="1.5" stroke-linecap="round" stroke-linejoin="round"/>
</svg>
