<svg width="25" height="24" viewBox="0 0 25 24" fill="none" xmlns="http://www.w3.org/2000/svg">
<path d="M12.5 0C5.8726 0 0.5 5.3726 0.5 12C0.5 18.6274 5.8726 24 12.5 24C19.1274 24 24.5 18.6274 24.5 12C24.5 5.3726 19.1274 0 12.5 0ZM12.5 2.60742C17.6874 2.60742 21.8911 6.81392 21.8911 12C21.8911 17.1861 17.6874 21.3911 12.5 21.3911C7.3126 21.3911 3.10888 17.1861 3.10888 12C3.1089 6.81392 7.3126 2.60742 12.5 2.60742ZM17.0981 6.30176L10.1431 13.2583L7.8872 11.0024L5.67382 13.2144L7.92968 15.4702L10.1577 17.6982L12.3696 15.4849L19.3262 8.52978L17.0981 6.30176Z" fill="#50D1AA"/>
</svg>
