<svg width="10" height="12" viewBox="0 0 10 12" fill="none" xmlns="http://www.w3.org/2000/svg">
<path d="M5.00007 0.375C5.26279 0.375 5.47992 0.567378 5.51428 0.816975L5.51902 0.886364L5.51875 9.87563L8.80081 6.62796C9.00303 6.42783 9.33161 6.42714 9.53471 6.62641C9.71935 6.80756 9.73672 7.09161 9.58641 7.29212L9.53629 7.34958L5.36809 11.4746L5.35716 11.4847C5.34595 11.4952 5.33427 11.5052 5.32215 11.5146L5.36809 11.4746C5.34801 11.4945 5.32668 11.5124 5.30435 11.5283C5.29033 11.5379 5.27577 11.5473 5.26072 11.5559C5.22725 11.5754 5.19222 11.5905 5.1562 11.6016C5.14351 11.6054 5.13054 11.6089 5.11738 11.6119C5.10734 11.6143 5.09713 11.6163 5.08688 11.618C5.07577 11.6197 5.06466 11.6212 5.05344 11.6223C5.04218 11.6236 5.03067 11.6244 5.01915 11.6248C5.01276 11.6249 5.00643 11.625 5.00007 11.625L4.98284 11.6248C4.97006 11.6244 4.95729 11.6235 4.94456 11.6222L5.00007 11.625C4.97044 11.625 4.94138 11.6226 4.9131 11.6179C4.90022 11.6158 4.88728 11.6131 4.87444 11.6099C4.86424 11.6074 4.85422 11.6046 4.84433 11.6016C4.83258 11.598 4.82074 11.5938 4.80904 11.5893C4.79695 11.5845 4.78514 11.5794 4.77357 11.5739C4.76472 11.5697 4.75559 11.565 4.74657 11.56C4.72966 11.5506 4.7138 11.5406 4.69855 11.5299C4.69616 11.5282 4.69353 11.5263 4.69091 11.5244C4.66775 11.5073 4.64732 11.4896 4.62839 11.4705L0.463738 7.34961C0.261495 7.1495 0.262176 6.82572 0.465257 6.62644C0.649877 6.44527 0.938214 6.42935 1.14106 6.5783L1.19916 6.62793L4.48063 9.875L4.48112 0.886364C4.48112 0.603945 4.71346 0.375 5.00007 0.375Z" fill="#FF7CA3"/>
</svg>
