<svg width="25" height="25" viewBox="0 0 25 25" fill="none" xmlns="http://www.w3.org/2000/svg">
<path d="M12.4895 2.08334C6.7395 2.08334 2.08325 6.75001 2.08325 12.5C2.08325 18.25 6.7395 22.9167 12.4895 22.9167C18.2499 22.9167 22.9166 18.25 22.9166 12.5C22.9166 6.75001 18.2499 2.08334 12.4895 2.08334ZM12.4999 20.8333C7.89575 20.8333 4.16659 17.1042 4.16659 12.5C4.16659 7.89584 7.89575 4.16668 12.4999 4.16668C17.1041 4.16668 20.8333 7.89584 20.8333 12.5C20.8333 17.1042 17.1041 20.8333 12.4999 20.8333Z" fill="#EA7C69"/>
<path d="M13.0208 7.29166H11.4583V13.5417L16.927 16.8229L17.7083 15.5417L13.0208 12.7604V7.29166Z" fill="#EA7C69"/>
</svg>
