<svg width="574" height="866" viewBox="0 0 574 866" fill="none" xmlns="http://www.w3.org/2000/svg">
<g filter="url(#filter0_d_602_6657)">
<path fill-rule="evenodd" clip-rule="evenodd" d="M34.1799 34.9202C32 39.1984 32 44.7989 32 56V836H46.7827C46.7827 827.376 52.7392 820.385 60.087 820.385C67.4348 820.385 73.3913 827.376 73.3913 836H85.2174C85.2174 827.376 91.174 820.385 98.5218 820.385C105.87 820.385 111.826 827.376 111.826 836H123.652C123.652 827.376 129.609 820.385 136.956 820.385C144.304 820.385 150.261 827.376 150.261 836H162.087C162.087 827.376 168.044 820.385 175.391 820.385C182.739 820.385 188.696 827.376 188.696 836H200.522C200.522 827.376 206.478 820.385 213.826 820.385C221.174 820.385 227.13 827.376 227.13 836H238.956C238.956 827.376 244.913 820.385 252.261 820.385C259.608 820.385 265.565 827.376 265.565 836H277.391C277.391 827.376 283.348 820.385 290.696 820.385C298.043 820.385 304 827.376 304 836H315.826C315.826 827.376 321.783 820.385 329.13 820.385C336.478 820.385 342.435 827.376 342.435 836H354.261C354.261 827.376 360.217 820.385 367.565 820.385C374.913 820.385 380.869 827.376 380.869 836H392.696C392.696 827.376 398.652 820.385 406 820.385C413.348 820.385 419.304 827.376 419.304 836H431.13C431.13 827.376 437.087 820.385 444.435 820.385C451.782 820.385 457.739 827.376 457.739 836H469.565C469.565 827.376 475.522 820.385 482.87 820.385C490.217 820.385 496.174 827.376 496.174 836H508C508 827.376 513.957 820.385 521.305 820.385C528.652 820.385 534.609 827.376 534.609 836H542V56C542 44.799 542 39.1984 539.82 34.9202C537.903 31.1569 534.843 28.0973 531.08 26.1799C526.802 24 521.201 24 510 24H64C52.799 24 47.1984 24 42.9202 26.1799C39.1569 28.0973 36.0973 31.1569 34.1799 34.9202Z" fill="white"/>
</g>
<defs>
<filter id="filter0_d_602_6657" x="0" y="0" width="574" height="876" filterUnits="userSpaceOnUse" color-interpolation-filters="sRGB">
<feFlood flood-opacity="0" result="BackgroundImageFix"/>
<feColorMatrix in="SourceAlpha" type="matrix" values="0 0 0 0 0 0 0 0 0 0 0 0 0 0 0 0 0 0 127 0" result="hardAlpha"/>
<feOffset dy="8"/>
<feGaussianBlur stdDeviation="16"/>
<feComposite in2="hardAlpha" operator="out"/>
<feColorMatrix type="matrix" values="0 0 0 0 0.4 0 0 0 0 0.4 0 0 0 0 0.4 0 0 0 0.16 0"/>
<feBlend mode="normal" in2="BackgroundImageFix" result="effect1_dropShadow_602_6657"/>
<feBlend mode="normal" in="SourceGraphic" in2="effect1_dropShadow_602_6657" result="shape"/>
</filter>
</defs>
</svg>
